<?xml version="1.0" encoding="UTF-8"?>
<svg version="1.1" xmlns="http://www.w3.org/2000/svg" width="150" height="132">
<path d="M0 0 C5.06388092 1.98872414 9.61226754 0.64858407 14.72753906 -0.45263672 C22.9694873 -2.22153628 30.25641042 -3.06007011 37.99609375 0.8515625 C41.6914953 3.92969207 43.55358356 7.09336349 44.31640625 11.828125 C44.30268592 24.94476062 40.48458792 32.24392534 31.43359375 41.765625 C27.50881844 45.49044815 23.37311076 48.51589693 18.75 51.3125 C18.02554688 51.75722656 17.30109375 52.20195313 16.5546875 52.66015625 C12.10885155 55.15354333 9.85876613 55.55098876 4.75 54.3125 C-7.42226593 49.27073305 -19.46717032 38.93460345 -25.6875 27.1875 C-28.12504311 21.12002255 -28.01341636 14.72677151 -27.25 8.3125 C-25.34762706 3.89899477 -22.7595562 1.22458998 -18.4296875 -0.99609375 C-12.35860516 -2.92186718 -5.79134415 -2.55174168 0 0 Z M-11.25 5.3125 C-14.63241964 8.08781868 -16.10934018 9.78502568 -17.25 14.0625 C-17.83909938 23.57734755 -12.30554378 31.67412358 -6.29296875 38.55078125 C-2.53264617 42.48366165 0.76823568 45.00560345 5.75 47.3125 C13.98615974 41.85184864 21.60127266 36.1852147 28.75 29.3125 C29.31074219 28.78914063 29.87148437 28.26578125 30.44921875 27.7265625 C33.25673807 24.6745445 33.68938079 20.8681761 34.125 16.875 C33.65159433 12.37764611 32.2048559 10.0714981 29.75 6.3125 C25.23548039 7.77307987 22.17147956 10.04308619 18.75 13.3125 C17.54549696 15.86433404 17.54549696 15.86433404 16.75 18.3125 C15.4375 20.1875 15.4375 20.1875 13.75 21.3125 C11.25 20.9375 11.25 20.9375 8.75 20.3125 C7.76 20.6425 6.77 20.9725 5.75 21.3125 C0.62644268 19.44743939 -2.51408015 16.4038335 -5 11.625 C-5.34546875 10.85800781 -5.6909375 10.09101563 -6.046875 9.30078125 C-7.47493582 6.94077165 -8.71943537 6.30665039 -11.25 5.3125 Z " fill="#BB2929" transform="translate(64.25,13.6875)"/>
<path d="M0 0 C1.12438477 0.08507812 1.12438477 0.08507812 2.27148438 0.171875 C4.11926559 0.31310669 5.966012 0.46776167 7.8125 0.625 C7.8125 1.285 7.8125 1.945 7.8125 2.625 C6.8225 2.625 5.8325 2.625 4.8125 2.625 C4.8125 5.265 4.8125 7.905 4.8125 10.625 C3.8225 10.625 2.8325 10.625 1.8125 10.625 C1.8125 7.985 1.8125 5.345 1.8125 2.625 C1.18601562 2.6971875 0.55953125 2.769375 -0.0859375 2.84375 C-1.31183594 2.98296875 -1.31183594 2.98296875 -2.5625 3.125 C-3.78066406 3.26421875 -3.78066406 3.26421875 -5.0234375 3.40625 C-7.1875 3.625 -7.1875 3.625 -9.1875 3.625 C-9.1875 4.945 -9.1875 6.265 -9.1875 7.625 C-6.8775 7.625 -4.5675 7.625 -2.1875 7.625 C-2.1875 8.615 -2.1875 9.605 -2.1875 10.625 C-4.875 11.4375 -4.875 11.4375 -8.1875 11.625 C-11.0625 9.1875 -11.0625 9.1875 -13.1875 6.625 C-10.6869021 -0.68444 -7.04325366 -0.61513132 0 0 Z " fill="#A82424" transform="translate(90.1875,78.375)"/>
<path d="M0 0 C1.5159375 0.0309375 1.5159375 0.0309375 3.0625 0.0625 C3.7225 0.0625 4.3825 0.0625 5.0625 0.0625 C7.39741639 0.38455743 9.73092508 0.71708149 12.0625 1.0625 C12.3925 2.7125 12.7225 4.3625 13.0625 6.0625 C9.79938263 8.23791158 8.81624806 8.2549999 5.0625 8.0625 C4.4025 8.0625 3.7425 8.0625 3.0625 8.0625 C0.72916667 8.0625 -1.60416667 8.0625 -3.9375 8.0625 C-3.97991723 5.72955225 -3.97842937 3.39547433 -3.9375 1.0625 C-2.9375 0.0625 -2.9375 0.0625 0 0 Z M7.0625 2.0625 C7.0625 3.3825 7.0625 4.7025 7.0625 6.0625 C8.0525 6.0625 9.0425 6.0625 10.0625 6.0625 C9.7325 4.7425 9.4025 3.4225 9.0625 2.0625 C8.4025 2.0625 7.7425 2.0625 7.0625 2.0625 Z " fill="#A72424" transform="translate(42.9375,91.9375)"/>
<path d="M0 0 C2.375 0.3125 2.375 0.3125 5 1 C5.66 1.99 6.32 2.98 7 4 C7.33 2.68 7.66 1.36 8 0 C9.32 0 10.64 0 12 0 C12 2.97 12 5.94 12 9 C10.35 9.33 8.7 9.66 7 10 C6.34 9.01 5.68 8.02 5 7 C4.67 7.99 4.34 8.98 4 10 C2.68 10 1.36 10 0 10 C0 6.7 0 3.4 0 0 Z " fill="#A82424" transform="translate(55,79)"/>
<path d="M0 0 C3 1 3 1 5 3 C5.66 2.01 6.32 1.02 7 0 C7.66 0 8.32 0 9 0 C9.33 1.65 9.66 3.3 10 5 C10.6496875 3.7625 10.6496875 3.7625 11.3125 2.5 C11.869375 1.675 12.42625 0.85 13 0 C13.99 0 14.98 0 16 0 C19 5.75 19 5.75 19 8 C18.01 8 17.02 8 16 8 C15.34 7.01 14.68 6.02 14 5 C13.01 6.485 13.01 6.485 12 8 C9.41196487 8.27242475 7.388197 8.10275803 4.875 7.4375 C2.79116759 6.77876382 2.79116759 6.77876382 0 8 C0 5.36 0 2.72 0 0 Z " fill="#A82424" transform="translate(73,92)"/>
<path d="M0 0 C1.32 0 2.64 0 4 0 C5.75 2 5.75 2 7 4 C7.33 2.68 7.66 1.36 8 0 C8.99 0 9.98 0 11 0 C11 3.3 11 6.6 11 10 C6.25 9.25 6.25 9.25 4 7 C3.67 7.99 3.34 8.98 3 10 C2.01 10 1.02 10 0 10 C0 6.7 0 3.4 0 0 Z " fill="#A82424" transform="translate(104,79)"/>
<path d="M0 0 C3.83736322 0.95934081 4.59660228 1.23609263 7 4 C7.33 2.68 7.66 1.36 8 0 C8.99 0 9.98 0 11 0 C11 3.3 11 6.6 11 10 C6.25 9.25 6.25 9.25 4 7 C3.67 7.99 3.34 8.98 3 10 C2.01 10 1.02 10 0 10 C0 6.7 0 3.4 0 0 Z " fill="#A82424" transform="translate(43,79)"/>
<path d="M0 0 C1.875 1.25 1.875 1.25 3 3 C2.6875 5.6875 2.6875 5.6875 2 8 C0.68 8.33 -0.64 8.66 -2 9 C-2 9.66 -2 10.32 -2 11 C-4.64168921 10.64301497 -6.60890736 10.247692 -8.875 8.8125 C-10 7 -10 7 -9.9375 3.9375 C-9 1 -9 1 -7.25 -0.4375 C-4.41826445 -1.14543389 -2.76430152 -0.92143384 0 0 Z M-5 2 C-5.33 3.65 -5.66 5.3 -6 7 C-4.515 7.99 -4.515 7.99 -3 9 C-2.01 7.68 -1.02 6.36 0 5 C-0.66 4.01 -1.32 3.02 -2 2 C-2.99 2 -3.98 2 -5 2 Z " fill="#A72323" transform="translate(39,79)"/>
<path d="M0 0 C0 0.99 0 1.98 0 3 C-1.65 3 -3.3 3 -5 3 C-5 4.32 -5 5.64 -5 7 C-4.34 7 -3.68 7 -3 7 C-2.67 6.01 -2.34 5.02 -2 4 C-1.01 4 -0.02 4 1 4 C1 5.98 1 7.96 1 10 C-2.48639678 10.89186894 -4.45899292 11.1999374 -7.875 9.9375 C-10 8 -10 8 -10.5625 5 C-10 2 -10 2 -8.375 0.0625 C-5.23872457 -1.34057059 -3.27549981 -0.81887495 0 0 Z " fill="#A72424" transform="translate(126,79)"/>
<path d="M0 0 C4.95 0 9.9 0 15 0 C14.67 1.65 14.34 3.3 14 5 C14.33 5.99 14.66 6.98 15 8 C12.69 8 10.38 8 8 8 C8 6.02 8 4.04 8 2 C7.01 2 6.02 2 5 2 C5 3.98 5 5.96 5 8 C4.01 8 3.02 8 2 8 C2 6.02 2 4.04 2 2 C1.34 2 0.68 2 0 2 C0 1.34 0 0.68 0 0 Z " fill="#A82424" transform="translate(91,92)"/>
<path d="M0 0 C0 0.99 0 1.98 0 3 C-1.65 3 -3.3 3 -5 3 C-5 4.32 -5 5.64 -5 7 C-3.02 7 -1.04 7 1 7 C0.67 7.99 0.34 8.98 0 10 C-3.38391693 11.06351675 -4.5804634 11.21442982 -7.8125 9.5625 C-8.534375 9.046875 -9.25625 8.53125 -10 8 C-9.75 4.625 -9.75 4.625 -9 1 C-5.99969508 -1.57168993 -3.64893445 -1.0135929 0 0 Z " fill="#A82424" transform="translate(28,79)"/>
<path d="M0 0 C2.97 0 5.94 0 9 0 C9 0.66 9 1.32 9 2 C7.02 2 5.04 2 3 2 C3 2.66 3 3.32 3 4 C4.65 4 6.3 4 8 4 C8 4.66 8 5.32 8 6 C6.35 6 4.7 6 3 6 C3 6.66 3 7.32 3 8 C4.98 8 6.96 8 9 8 C9 8.66 9 9.32 9 10 C6.03 10 3.06 10 0 10 C0 6.7 0 3.4 0 0 Z " fill="#A82424" transform="translate(68,79)"/>
<path d="M0 0 C0.66 0 1.32 0 2 0 C2.185625 1.2065625 2.185625 1.2065625 2.375 2.4375 C2.58125 3.283125 2.7875 4.12875 3 5 C3.66 5.33 4.32 5.66 5 6 C5 4.02 5 2.04 5 0 C5.99 0 6.98 0 8 0 C8.125 5.75 8.125 5.75 7 8 C5.00045254 8.04254356 2.99958364 8.04080783 1 8 C0 7 0 7 -0.0625 3.4375 C-0.041875 2.303125 -0.02125 1.16875 0 0 Z " fill="#A72424" transform="translate(57,92)"/>
<path d="M0 0 C0.99 0 1.98 0 3 0 C3 3.3 3 6.6 3 10 C2.01 10 1.02 10 0 10 C0 6.7 0 3.4 0 0 Z " fill="#A82525" transform="translate(99,79)"/>
<path d="M0 0 C0.66 0 1.32 0 2 0 C2 1.98 2 3.96 2 6 C3.32 6 4.64 6 6 6 C6 6.66 6 7.32 6 8 C4.02 8 2.04 8 0 8 C0 5.36 0 2.72 0 0 Z " fill="#A82424" transform="translate(66,92)"/>
</svg>
